<?xml version="1.0" encoding="utf-8"?>
<!-- Generator: Adobe Illustrator 16.0.0, SVG Export Plug-In . SVG Version: 6.00 Build 0)  -->
<!DOCTYPE svg PUBLIC "-//W3C//DTD SVG 1.1//EN" "http://www.w3.org/Graphics/SVG/1.1/DTD/svg11.dtd">
<svg version="1.1" id="Layer_1" xmlns="http://www.w3.org/2000/svg" xmlns:xlink="http://www.w3.org/1999/xlink" x="0px" y="0px"
	 width="1728px" height="864px" viewBox="0 0 1728 864" enable-background="new 0 0 1728 864" xml:space="preserve">
<g>
	<g>
		<path fill="#D1202C" d="M525.942,509.133h39.673l21.371-47.663c20.516,0,34.916-0.593,43.217-1.77
			c14.15-2.037,26.229-5.661,36.29-10.86c10.064-5.205,16.856-11.744,20.369-19.571c3.175-7.104,2.981-13.195-0.602-18.263
			c-3.596-5.079-9.982-8.755-19.123-11.023c-9.133-2.269-25.207-3.402-48.219-3.402H576.41L525.942,509.133z M606.74,417.432h11.44
			c12.552,0,20.812,0.738,24.781,2.226c5.472,2.001,7.251,5.206,5.253,9.57c-1.109,2.5-3.221,4.656-6.276,6.435
			c-3.058,1.778-6.752,3.05-11.047,3.806c-4.309,0.773-11.534,1.159-21.659,1.159H596.32L606.74,417.432z"/>
	</g>
	<polygon fill="#D1202C" points="720.165,396.581 835.102,396.581 825.836,417.243 750.578,417.243 741.312,437.904 
		816.584,437.904 807.317,458.566 732.029,458.566 718.773,488.111 794.054,488.111 784.636,509.142 669.701,509.142 	"/>
	<polygon fill="#D1202C" points="861.987,396.581 976.924,396.581 967.658,417.243 892.379,417.243 883.117,437.904 
		958.397,437.904 949.114,458.566 873.869,458.566 860.604,488.111 935.876,488.111 926.46,509.142 811.514,509.142 	"/>
	<g>
		<path fill="#D1202C" d="M950.617,509.133h48.158c27.247,0,46.822-0.918,58.703-2.749c11.868-1.848,23.629-5.162,35.28-9.948
			c11.593-4.795,21.757-10.833,30.387-18.093c8.646-7.26,14.901-15.232,18.805-23.918c5.465-12.19,5.438-22.86-0.085-31.976
			c-5.532-9.15-14.841-15.739-27.853-19.795c-13.075-4.038-34.872-6.074-65.468-6.074h-47.463L950.617,509.133z M1045.085,417.432
			c25.053,0,41.926,2.946,50.62,8.857c9.604,6.589,11.769,15.826,6.413,27.75c-3.476,7.73-9.033,14.294-16.696,19.569
			c-7.682,5.302-16.144,9.081-25.452,11.314c-9.309,2.252-23.191,3.36-41.619,3.36H999.63l31.759-70.852H1045.085z"/>
	</g>
	<polygon fill="#D1202C" points="1185.229,396.581 1225.908,396.581 1206.813,439.167 1277.333,439.167 1296.433,396.581 
		1336.768,396.581 1286.308,509.142 1245.955,509.142 1268.052,459.829 1197.545,459.829 1175.426,509.142 1134.73,509.142 	"/>
	<path fill="#D1202C" d="M1358.529,396.581h39.656l-32.611,72.758c-2.814,6.264-3.775,10.695-2.831,13.291
		c0.893,2.603,3.402,4.681,7.513,6.229c4.09,1.571,9.554,2.328,16.317,2.328c7.18,0,13.743-0.868,19.704-2.595
		c5.959-1.735,10.512-3.943,13.699-6.605c3.201-2.682,6.474-7.794,9.854-15.336l31.424-70.07h39.664l-30.061,67.046
		c-5.072,11.332-9.755,19.157-14.137,23.548c-4.334,4.372-10.786,8.59-19.316,12.68c-8.57,4.083-17.655,7.105-27.308,9.038
		c-9.659,1.985-20.287,2.955-31.916,2.955c-15.244,0-27.685-1.863-37.312-5.61c-9.596-3.728-15.57-8.436-17.912-14.063
		c-2.337-5.627-0.498-15.162,5.511-28.547L1358.529,396.581z"/>
	<path fill="#D1202C" d="M405.966,510.362c71.25,0.713,114.472-22.862,120.374-51.908c4.425-21.753-6.572-33.669-36.215-42.286
		c-11.765-3.419-50.365-5.154-64.872-5.154c-19.137-0.052-28.991-12.862-24.377-23.085c4.583-10.25,23.892-18.556,43.042-18.556
		c0,0,1074.034-0.138,1090.051-0.138c-3.643,8.171-62.857,140.198-62.857,140.198h36.019c0,0,59.223-132.027,62.865-140.198
		c11.216,0,63.85-0.008,63.85-0.008l8.578-20.155h-8.032H441.306c-40.1,0-80.512,17.423-90.121,38.857
		c-5.477,12.199-1.697,28.333,13.471,35.654c10.167,4.914,23.372,8.169,38.708,8.248h0.167l0.932,0.078h-0.309
		c32.595,0,77.161,0.619,72.509,26.546c-4.802,26.606-40.713,31.6-73.299,31.6H108.812l-12.174,20.309H405.966z"/>
</g>
</svg>
